<?xml version="1.0" encoding="UTF-8" standalone="no"?>
<!-- Created with Inkscape (http://www.inkscape.org/) -->

<svg
   xmlns:dc="http://purl.org/dc/elements/1.1/"
   xmlns:cc="http://creativecommons.org/ns#"
   xmlns:rdf="http://www.w3.org/1999/02/22-rdf-syntax-ns#"
   xmlns:svg="http://www.w3.org/2000/svg"
   xmlns="http://www.w3.org/2000/svg"
   xmlns:sodipodi="http://sodipodi.sourceforge.net/DTD/sodipodi-0.dtd"
   xmlns:inkscape="http://www.inkscape.org/namespaces/inkscape"
   width="64"
   height="16"
   id="svg2"
   version="1.1"
   inkscape:version="0.48.3.1 r9886"
   sodipodi:docname="zstickybar.svg"
   inkscape:export-filename="zstickybar.png"
   inkscape:export-xdpi="90"
   inkscape:export-ydpi="90">
  <defs
     id="defs4" />
  <sodipodi:namedview
     id="base"
     pagecolor="#ffffff"
     bordercolor="#666666"
     borderopacity="1.0"
     inkscape:pageopacity="0.0"
     inkscape:pageshadow="2"
     inkscape:zoom="18.140625"
     inkscape:cx="32"
     inkscape:cy="8"
     inkscape:document-units="px"
     inkscape:current-layer="layer2"
     showgrid="true"
     inkscape:window-width="1280"
     inkscape:window-height="892"
     inkscape:window-x="0"
     inkscape:window-y="24"
     inkscape:window-maximized="1">
    <inkscape:grid
       type="xygrid"
       id="grid2985"
       empspacing="5"
       visible="true"
       enabled="true"
       snapvisiblegridlinesonly="true" />
  </sodipodi:namedview>
  <metadata
     id="metadata7">
    <rdf:RDF>
      <cc:Work
         rdf:about="">
        <dc:format>image/svg+xml</dc:format>
        <dc:type
           rdf:resource="http://purl.org/dc/dcmitype/StillImage" />
        <dc:title />
      </cc:Work>
    </rdf:RDF>
  </metadata>
  <g
     inkscape:label="bg"
     inkscape:groupmode="layer"
     id="layer1"
     transform="translate(0,-1036.3622)"
     style="display:none">
    <path
       sodipodi:type="arc"
       style="color:#000000;fill:#aa0000;fill-opacity:1;fill-rule:evenodd;stroke:none;stroke-width:1px;marker:none;visibility:visible;display:inline;overflow:visible;enable-background:accumulate"
       id="path2987"
       sodipodi:cx="7"
       sodipodi:cy="7"
       sodipodi:rx="7"
       sodipodi:ry="7"
       d="M 14,7 A 7,7 0 1 1 0,7 7,7 0 1 1 14,7 z"
       transform="translate(17,1037.3622)" />
    <path
       transform="translate(33,1037.3622)"
       d="M 14,7 A 7,7 0 1 1 0,7 7,7 0 1 1 14,7 z"
       sodipodi:ry="7"
       sodipodi:rx="7"
       sodipodi:cy="7"
       sodipodi:cx="7"
       id="path2988"
       style="color:#000000;fill:#4d4d4d;fill-opacity:1;fill-rule:evenodd;stroke:none;stroke-width:1px;marker:none;visibility:visible;display:inline;overflow:visible;enable-background:accumulate"
       sodipodi:type="arc" />
    <path
       sodipodi:type="arc"
       style="color:#000000;fill:#4d4d4d;fill-opacity:1;fill-rule:evenodd;stroke:none;stroke-width:1px;marker:none;visibility:visible;display:inline;overflow:visible;enable-background:accumulate"
       id="path2991"
       sodipodi:cx="7"
       sodipodi:cy="7"
       sodipodi:rx="7"
       sodipodi:ry="7"
       d="M 14,7 A 7,7 0 1 1 0,7 7,7 0 1 1 14,7 z"
       transform="translate(49,1037.3622)" />
    <rect
       style="color:#000000;fill:#4d4d4d;fill-opacity:1;fill-rule:evenodd;stroke:none;stroke-width:1px;marker:none;visibility:visible;display:inline;overflow:visible;enable-background:accumulate"
       id="rect3004"
       width="14"
       height="14"
       x="1"
       y="1"
       transform="translate(0,1036.3622)" />
  </g>
  <g
     inkscape:groupmode="layer"
     id="layer2"
     inkscape:label="fg"
     transform="translate(0,2)"
     style="display:inline">
    <path
       style="color:#000000;fill:#ffffff;fill-opacity:1;fill-rule:evenodd;stroke:#000000;stroke-width:1px;marker:none;visibility:visible;display:inline;overflow:visible;enable-background:accumulate;stroke-opacity:0.25098041"
       d="M 21.15625 3.75 L 19.75 5.15625 L 22.59375 8 L 19.75 10.84375 L 21.15625 12.25 L 24 9.40625 L 26.84375 12.25 L 28.25 10.84375 L 25.40625 8 L 28.25 5.15625 L 26.84375 3.75 L 24 6.59375 L 21.15625 3.75 z "
       transform="translate(0,-2)"
       id="rect2990" />
    <path
       style="color:#000000;fill:#ffffff;fill-opacity:1;fill-rule:evenodd;stroke:#000000;stroke-width:1px;marker:none;visibility:visible;display:inline;overflow:visible;enable-background:accumulate;stroke-opacity:0.25098041"
       d="M 37.15625 5.15625 L 35.75 6.59375 L 38.59375 9.40625 L 40 10.84375 L 41.40625 9.40625 L 44.25 6.59375 L 42.84375 5.15625 L 40 8 L 37.15625 5.15625 z "
       transform="translate(0,-2)"
       id="rect2991" />
    <path
       style="color:#000000;fill:#ffffff;fill-opacity:1;fill-rule:evenodd;stroke:#000000;stroke-width:1px;marker:none;visibility:visible;display:inline;overflow:visible;enable-background:accumulate;stroke-opacity:0.25098041"
       d="M 56 5.15625 L 54.59375 6.59375 L 51.75 9.40625 L 53.15625 10.84375 L 56 8 L 58.84375 10.84375 L 60.25 9.40625 L 57.40625 6.59375 L 56 5.15625 z "
       transform="translate(0,-2)"
       id="rect2995" />
    <path
       style="color:#000000;fill:#ffffff;fill-opacity:1;fill-rule:evenodd;stroke:#000000;stroke-width:1px;marker:none;visibility:visible;display:inline;overflow:visible;enable-background:accumulate;stroke-opacity:0.25098041"
       d="M 8,2 6.59375,3.40625 1.625,8.375 3.0625,9.78125 4,8.84375 4,13 l 3,0 0,-3 2,0 0,3 3,0 0,-4.15625 0.9375,0.9375 L 14.375,8.375 9.40625,3.40625 z"
       id="rect3006"
       transform="translate(0,-2)"
       inkscape:connector-curvature="0"
       sodipodi:nodetypes="cccccccccccccccc" />
  </g>
</svg>
